<svg width="52" height="52" viewBox="0 0 52 52" fill="none" xmlns="http://www.w3.org/2000/svg"><path d="M47.602 39.715c0 .78-.173 1.582-.542 2.362a8.94 8.94 0 01-1.473 2.21c-1.062 1.17-2.232 2.015-3.554 2.556-1.3.542-2.708.824-4.224.824-2.21 0-4.572-.52-7.064-1.582s-4.983-2.492-7.453-4.29a62.3 62.3 0 01-7.107-6.067 61.562 61.562 0 01-6.045-7.085c-1.777-2.47-3.207-4.94-4.247-7.388-1.04-2.47-1.56-4.832-1.56-7.085 0-1.473.26-2.882.78-4.182.52-1.321 1.344-2.535 2.492-3.618 1.387-1.365 2.903-2.037 4.507-2.037.607 0 1.213.13 1.755.39.563.26 1.061.65 1.451 1.214l5.027 7.085c.39.541.672 1.04.867 1.516.195.455.303.91.303 1.322 0 .52-.152 1.04-.455 1.538-.281.499-.693 1.019-1.213 1.539L18.2 20.648a1.16 1.16 0 00-.346.867c0 .173.021.325.065.498.064.174.13.304.173.434.39.715 1.062 1.646 2.015 2.773a74.11 74.11 0 003.142 3.423c1.17 1.149 2.296 2.21 3.445 3.185 1.126.954 2.058 1.604 2.794 1.994.109.043.239.108.39.173a1.5 1.5 0 00.542.087c.368 0 .65-.13.888-.369l1.647-1.625c.542-.541 1.062-.953 1.56-1.213.498-.303.997-.455 1.538-.455.412 0 .846.087 1.322.282.477.195.975.476 1.517.845l7.171 5.091c.564.39.954.845 1.192 1.387a4.44 4.44 0 01.347 1.69z" stroke="#233460" stroke-width="3" stroke-miterlimit="10"/><path d="M41.645 4.875h8.125m-18.417.361L32.707 6.5l4.063-3.792m4.875 13h8.125m-18.417-.18l1.354 1.264L36.77 13" stroke="#F4A84F" stroke-width="3" stroke-linecap="round" stroke-linejoin="round"/></svg>