<svg width="52" height="52" viewBox="0 0 52 52" fill="none" xmlns="http://www.w3.org/2000/svg"><path d="M47.667 24.917v8.666c0 7.584-4.334 10.834-10.834 10.834H15.168c-6.5 0-10.833-3.25-10.833-10.834V18.417c0-7.584 4.333-10.834 10.833-10.834H26" stroke="#233460" stroke-width="3" stroke-miterlimit="10" stroke-linecap="round" stroke-linejoin="round"/><path d="M15.166 19.5l6.782 5.417c2.232 1.776 5.893 1.776 8.125 0" stroke="#233460" stroke-width="3" stroke-miterlimit="10" stroke-linecap="round" stroke-linejoin="round"/><path d="M42.206 6.11l.607 1.235c.303.607 1.062 1.17 1.733 1.3l.824.13c2.47.412 3.055 2.232 1.278 4.03l-.758.758c-.498.52-.78 1.517-.629 2.21l.109.455c.672 2.99-.91 4.139-3.51 2.579l-.563-.325c-.672-.39-1.755-.39-2.427 0l-.563.325c-2.622 1.581-4.204.411-3.51-2.579l.108-.455c.151-.693-.13-1.69-.629-2.21l-.758-.758c-1.777-1.798-1.191-3.618 1.279-4.03l.823-.13c.65-.108 1.43-.693 1.733-1.3l.607-1.235c1.17-2.362 3.076-2.362 4.246 0z" stroke="#F4A84F" stroke-width="3" stroke-linecap="round" stroke-linejoin="round"/></svg>