<svg width="52" height="52" viewBox="0 0 52 52" fill="none" xmlns="http://www.w3.org/2000/svg"><path d="M37.375 44.417h-22.75c-9.1 0-11.375-2.017-11.375-10.081v-16.13c0-8.065 2.275-10.081 11.375-10.081h22.75c9.1 0 11.375 2.016 11.375 10.081v16.13c0 8.065-2.275 10.08-11.375 10.08z" stroke="#233460" stroke-width="3" stroke-linecap="round" stroke-linejoin="round"/><path d="M30.334 17.333h10.833M32.5 26h8.667m-4.333 8.666h4.333" stroke="#F4A84F" stroke-width="3" stroke-linecap="round" stroke-linejoin="round"/><path d="M18.417 25.177a3.922 3.922 0 100-7.844 3.922 3.922 0 000 7.844zM26 34.298c-.303-2.278-2.795-4.07-5.936-4.274a23.027 23.027 0 00-3.294 0c-3.141.22-5.633 1.996-5.936 4.274" stroke="#233460" stroke-width="3" stroke-linecap="round" stroke-linejoin="round"/></svg>