<svg width="52" height="52" viewBox="0 0 52 52" fill="none" xmlns="http://www.w3.org/2000/svg"><path d="M19.5 47.667h13c10.834 0 15.167-4.334 15.167-15.167v-13c0-10.833-4.334-15.166-15.167-15.166h-13C8.667 4.334 4.334 8.667 4.334 19.5v13c0 10.834 4.333 15.167 15.166 15.167z" stroke="#233460" stroke-width="3" stroke-linecap="round" stroke-linejoin="round"/><path d="M4.333 28.167h8.147a4.33 4.33 0 013.878 2.405l1.929 3.878c1.213 2.383 3.38 2.383 3.9 2.383h7.648a4.333 4.333 0 003.879-2.405l1.928-3.878a4.334 4.334 0 013.878-2.405h8.103" stroke="#233460" stroke-width="3" stroke-linecap="round" stroke-linejoin="round"/><path d="M24.916 12.459h11.375m-21.666.361l1.354 1.263 4.063-3.792m4.874 11.375h11.375m-21.666-.18l1.354 1.264 4.063-3.791" stroke="#F4A84F" stroke-width="3" stroke-linecap="round" stroke-linejoin="round"/></svg>