<svg width="52" height="52" viewBox="0 0 52 52" fill="none" xmlns="http://www.w3.org/2000/svg"><path d="M36.747 13.368a18.698 18.698 0 017.93 13.325m-37.115.109a18.636 18.636 0 017.8-13.325m2.383 31.893a18.47 18.47 0 008.385 1.994c2.904 0 5.634-.65 8.082-1.842" stroke="#233460" stroke-width="3" stroke-linecap="round" stroke-linejoin="round"/><path d="M33.042 15.932c0 .243-.055.494-.17.738a2.791 2.791 0 01-.461.69c-.332.366-.698.63-1.112.8a3.416 3.416 0 01-1.322.257c-.692 0-1.431-.163-2.211-.495a11.92 11.92 0 01-2.333-1.34 19.493 19.493 0 01-2.224-1.896 19.248 19.248 0 01-1.892-2.214 12.07 12.07 0 01-1.329-2.309c-.325-.772-.488-1.51-.488-2.214 0-.46.081-.9.244-1.307.163-.413.42-.792.78-1.13.434-.427.909-.637 1.41-.637.19 0 .38.04.55.122.176.081.332.203.454.379l1.573 2.214c.122.17.21.325.271.474.061.142.095.284.095.413a.918.918 0 01-.142.48 2.303 2.303 0 01-.38.482l-.515.534a.362.362 0 00-.109.271c0 .054.007.102.02.156.021.054.041.095.055.135.122.224.332.515.63.867.306.352.631.711.984 1.07.366.359.719.69 1.078.995.353.298.644.501.875.623.034.014.074.034.122.054a.47.47 0 00.17.027c.115 0 .203-.04.277-.115l.516-.508c.17-.169.332-.297.488-.379a.904.904 0 01.481-.142c.13 0 .265.027.414.088.15.061.305.15.475.264l2.244 1.591c.176.122.299.264.373.434.068.169.109.338.109.528z" stroke="#233460" stroke-width="2" stroke-miterlimit="10"/><path d="M10.465 43.16a6.023 6.023 0 100-12.047 6.023 6.023 0 000 12.047z" stroke="#233460" stroke-width="3" stroke-linecap="round" stroke-linejoin="round"/><path d="M19 27.405L23 24v11m4 0v-6l2.5 2.727L32 29v6" stroke="#F4A84F" stroke-width="3" stroke-linecap="round" stroke-linejoin="round"/><path d="M41.535 43.16a6.023 6.023 0 100-12.047 6.023 6.023 0 000 12.047z" stroke="#233460" stroke-width="3" stroke-linecap="round" stroke-linejoin="round"/></svg>