<svg width="52" height="52" viewBox="0 0 52 52" fill="none" xmlns="http://www.w3.org/2000/svg"><path d="M45.5 15.167v21.666c0 6.5-3.25 10.834-10.833 10.834H17.333C9.75 47.667 6.5 43.333 6.5 36.833V15.168c0-6.5 3.25-10.833 10.833-10.833h17.334c7.583 0 10.833 4.333 10.833 10.833z" stroke="#233460" stroke-width="3" stroke-miterlimit="10" stroke-linecap="round" stroke-linejoin="round"/><path d="M33.583 4.333v17.03c0 .954-1.127 1.43-1.82.802l-5.026-4.636a1.074 1.074 0 00-1.474 0l-5.026 4.636c-.694.629-1.82.152-1.82-.802V4.333h15.166z" stroke="#F4A84F" stroke-width="3" stroke-miterlimit="10" stroke-linecap="round" stroke-linejoin="round"/><path d="M28.709 30.334h9.208M19.5 39h18.417" stroke="#233460" stroke-width="3" stroke-miterlimit="10" stroke-linecap="round" stroke-linejoin="round"/></svg>